<?xml version="1.0" encoding="iso-8859-1"?>
<!-- Generator: Adobe Illustrator 19.0.0, SVG Export Plug-In . SVG Version: 6.00 Build 0)  -->
<svg version="1.1" id="Capa_1" xmlns="http://www.w3.org/2000/svg" xmlns:xlink="http://www.w3.org/1999/xlink" x="0px" y="0px"
	 viewBox="0 0 402.286 402.286" style="enable-background:new 0 0 402.286 402.286;" xml:space="preserve">
<g>
	<g>
		<path style="fill:#D4E1F4;" d="M313.469,67.918v234.58h-67.918c-11.542,0-20.898,9.356-20.898,20.898v67.396l-1.045,1.045H73.143
			c-11.542,0-20.898-9.356-20.898-20.898V67.918c0-11.542,9.356-20.898,20.898-20.898h219.429
			C304.113,47.02,313.469,56.377,313.469,67.918z"/>
		<path style="fill:#00CEB4;" d="M312.947,303.02l-88.294,87.771v-66.873c0-11.542,9.356-20.898,20.898-20.898H312.947z"/>
	</g>
	<g>
		<path style="fill:#083863;" d="M223.608,402.286H73.143c-17.312,0-31.347-14.035-31.347-31.347V67.918
			c0-17.312,14.035-31.347,31.347-31.347h219.429c17.312,0,31.347,14.035,31.347,31.347v234.58
			c-0.039,2.756-1.166,5.385-3.135,7.314h-0.522l-89.339,88.816C229.082,400.791,226.442,402.111,223.608,402.286z M73.143,57.469
			c-5.771,0-10.449,4.678-10.449,10.449v303.02c0,5.771,4.678,10.449,10.449,10.449h146.286l83.592-83.069v-230.4
			c0-5.771-4.678-10.449-10.449-10.449H73.143z"/>
		<path style="fill:#083863;" d="M224.653,402.286c-5.771,0-10.449-4.678-10.449-10.449v-67.918
			c0-17.312,14.035-31.347,31.347-31.347h67.918c5.771,0,10.449,4.678,10.449,10.449c0,5.771-4.678,10.449-10.449,10.449h-67.918
			c-5.771,0-10.449,4.678-10.449,10.449v67.918C235.102,397.608,230.424,402.286,224.653,402.286z"/>
		<path style="fill:#083863;" d="M112.327,227.265H91.429c-5.771,0-10.449-4.678-10.449-10.449c0-5.771,4.678-10.449,10.449-10.449
			h20.898c5.771,0,10.449,4.678,10.449,10.449C122.776,222.587,118.097,227.265,112.327,227.265z"/>
		<path style="fill:#083863;" d="M263.837,227.265H143.673c-5.771,0-10.449-4.678-10.449-10.449c0-5.771,4.678-10.449,10.449-10.449
			h120.163c5.771,0,10.449,4.678,10.449,10.449C274.286,222.587,269.608,227.265,263.837,227.265z"/>
		<path style="fill:#083863;" d="M112.327,279.51H91.429c-5.771,0-10.449-4.678-10.449-10.449s4.678-10.449,10.449-10.449h20.898
			c5.771,0,10.449,4.678,10.449,10.449S118.097,279.51,112.327,279.51z"/>
		<path style="fill:#083863;" d="M263.837,279.51H143.673c-5.771,0-10.449-4.678-10.449-10.449s4.678-10.449,10.449-10.449h120.163
			c5.771,0,10.449,4.678,10.449,10.449S269.608,279.51,263.837,279.51z"/>
		<path style="fill:#083863;" d="M112.327,175.02H91.429c-5.771,0-10.449-4.678-10.449-10.449s4.678-10.449,10.449-10.449h20.898
			c5.771,0,10.449,4.678,10.449,10.449S118.097,175.02,112.327,175.02z"/>
		<path style="fill:#083863;" d="M263.837,175.02H143.673c-5.771,0-10.449-4.678-10.449-10.449s4.678-10.449,10.449-10.449h120.163
			c5.771,0,10.449,4.678,10.449,10.449S269.608,175.02,263.837,175.02z"/>
		<path style="fill:#083863;" d="M112.327,122.776H91.429c-5.771,0-10.449-4.678-10.449-10.449c0-5.771,4.678-10.449,10.449-10.449
			h20.898c5.771,0,10.449,4.678,10.449,10.449C122.776,118.097,118.097,122.776,112.327,122.776z"/>
		<path style="fill:#083863;" d="M263.837,122.776H143.673c-5.771,0-10.449-4.678-10.449-10.449c0-5.771,4.678-10.449,10.449-10.449
			h120.163c5.771,0,10.449,4.678,10.449,10.449C274.286,118.097,269.608,122.776,263.837,122.776z"/>
		<path style="fill:#083863;" d="M350.041,297.273c-5.771,0-10.449-4.678-10.449-10.449V41.796c0-11.542-9.356-20.898-20.898-20.898
			H88.816c-5.771,0-10.449-4.678-10.449-10.449S83.046,0,88.816,0h229.878c23.083,0,41.796,18.713,41.796,41.796v245.029
			C360.49,292.595,355.812,297.273,350.041,297.273z"/>
	</g>
</g>
<g>
</g>
<g>
</g>
<g>
</g>
<g>
</g>
<g>
</g>
<g>
</g>
<g>
</g>
<g>
</g>
<g>
</g>
<g>
</g>
<g>
</g>
<g>
</g>
<g>
</g>
<g>
</g>
<g>
</g>
</svg>
