<?xml version="1.0" encoding="iso-8859-1"?>
<!-- Generator: Adobe Illustrator 19.0.0, SVG Export Plug-In . SVG Version: 6.00 Build 0)  -->
<svg xmlns="http://www.w3.org/2000/svg" xmlns:xlink="http://www.w3.org/1999/xlink" version="1.1" id="Capa_1" x="0px" y="0px" viewBox="0 0 480 480" style="enable-background:new 0 0 480 480;" xml:space="preserve" width="512px" height="512px">
<g>
	<g>
		<g>
			<path d="M408,428H8c-4.418,0-8,3.582-8,8c0.026,22.08,17.92,39.974,40,40h336c22.08-0.026,39.974-17.92,40-40     C416,431.582,412.418,428,408,428z M376,460H40c-10.168-0.012-19.229-6.418-22.632-16h381.264     C395.229,453.582,386.168,459.988,376,460z" fill="#006DF0"/>
			<path d="M456,132H9.44c-4.146-0.018-7.619,3.135-8,7.264C0.496,149.936,0,160.952,0,172     c0,103.048,41.784,197.496,109.048,246.472c1.371,0.991,3.02,1.526,4.712,1.528h188.48c1.692-0.002,3.341-0.537,4.712-1.528     c45.504-33.136,79.296-87.128,96.424-150.472H424c30.913-0.035,55.965-25.087,56-56v-56C480,142.745,469.255,132,456,132z      M299.608,404h-183.2C54.4,357.544,16,268.944,16,172c0-8.072,0.28-16.112,0.8-24h382.4c0.544,7.888,0.8,15.928,0.8,24     C400,268.944,361.6,357.544,299.608,404z M464,212c-0.026,22.08-17.92,39.974-40,40h-16v-3.104     c5.33-25.285,8.011-51.056,8-76.896c0-8.072-0.352-16.08-0.88-24H456c4.418,0,8,3.582,8,8V212z" fill="#006DF0"/>
			<path d="M200.32,100h16c0-4.592,1.672-6.528,5.456-10.472c11.898-10.206,13.27-28.126,3.064-40.024     c-0.942-1.098-1.966-2.122-3.064-3.064c-3.784-3.944-5.456-5.88-5.456-10.44s1.672-6.504,5.448-10.44     c6.249-5.428,9.86-13.283,9.912-21.56h-16c0,4.576-1.672,6.504-5.448,10.448c-11.892,10.187-13.274,28.085-3.087,39.977     c0.948,1.107,1.98,2.139,3.087,3.087c3.784,3.944,5.456,5.88,5.456,10.472c0,4.592-1.672,6.528-5.456,10.472     C203.996,83.887,200.387,91.731,200.32,100z" fill="#006DF0"/>
			<path d="M112.32,100h16c0-4.592,1.672-6.528,5.456-10.472c11.898-10.206,13.27-28.126,3.064-40.024     c-0.942-1.098-1.966-2.122-3.064-3.064c-3.784-3.944-5.456-5.88-5.456-10.44s1.672-6.504,5.448-10.44     c6.249-5.428,9.86-13.283,9.912-21.56h-16c0,4.576-1.672,6.504-5.448,10.448c-11.892,10.187-13.274,28.085-3.087,39.977     c0.948,1.107,1.98,2.139,3.087,3.087c3.784,3.944,5.456,5.88,5.456,10.472c0,4.592-1.672,6.528-5.456,10.472     C115.996,83.887,112.387,91.731,112.32,100z" fill="#006DF0"/>
			<path d="M288.32,100h16c0-4.592,1.672-6.528,5.456-10.472c11.898-10.206,13.27-28.126,3.064-40.024     c-0.942-1.098-1.966-2.122-3.064-3.064c-3.784-3.944-5.456-5.88-5.456-10.44s1.672-6.504,5.448-10.44     c6.249-5.428,9.86-13.283,9.912-21.56h-16c0,4.576-1.672,6.504-5.448,10.448c-11.892,10.187-13.274,28.085-3.087,39.977     c0.948,1.107,1.98,2.139,3.087,3.087c3.784,3.944,5.456,5.88,5.456,10.472c0,4.592-1.672,6.528-5.456,10.472     C291.996,83.887,288.387,91.731,288.32,100z" fill="#006DF0"/>
		</g>
	</g>
</g>
<g>
</g>
<g>
</g>
<g>
</g>
<g>
</g>
<g>
</g>
<g>
</g>
<g>
</g>
<g>
</g>
<g>
</g>
<g>
</g>
<g>
</g>
<g>
</g>
<g>
</g>
<g>
</g>
<g>
</g>
</svg>
